<?xml version="1.0" encoding="utf-8" standalone="yes"?>
<!DOCTYPE svg PUBLIC "-//W3C//DTD SVG 1.1//EN" "http://www.w3.org/Graphics/SVG/1.1/DTD/svg11.dtd">
<svg width="650" height="388" viewBox="0 0 650 388" style="fill:none;stroke:none;fill-rule:evenodd;clip-rule:evenodd;stroke-linecap:round;stroke-linejoin:round;stroke-miterlimit:1.5;" version="1.1" xmlns="http://www.w3.org/2000/svg" xmlns:xlink="http://www.w3.org/1999/xlink"><style id="fontImports">@import url("https://fonts.googleapis.com/css2?family=Roboto:wght@400;700&amp;display=block");</style><rect id="" x="0" y="0" width="650" height="387.423" style="fill: #ffffff;"></rect><g id="items" style="isolation: isolate"><g id="blend" style="mix-blend-mode:normal"><g id="g-root-4.cu_sy_1urstcfg53q4k-fill" data-item-order="999818233" data-item-id="4.cu_sy_1urstcfg53q4k" data-item-class="Part Indexed Fill Stroke" data-item-index="4" data-renderer-id="0" transform="translate(305.2950439453125, 218.95013427734375)"></g><g id="g-root-4.cu_sy_1urstcfg53q4k-fill" data-item-order="999818233" data-item-id="4.cu_sy_1urstcfg53q4k" data-item-class="Part Indexed Fill Stroke" data-item-index="4" data-renderer-id="0" transform="translate(305.2950439453125, 218.95013427734375)"></g><g id="g-root-3.cu_sy_6i9hrg53pjf-fill" data-item-order="999818235" data-item-id="3.cu_sy_6i9hrg53pjf" data-item-class="Part Indexed Fill Stroke ColorFillGray ColorStrokeBlack" data-item-index="3" data-renderer-id="0" transform="translate(298.041015625, 218.0001220703125)"></g><g id="g-root-3.cu_sy_6i9hrg53pjf-fill" data-item-order="999818235" data-item-id="3.cu_sy_6i9hrg53pjf" data-item-class="Part Indexed Fill Stroke ColorFillGray ColorStrokeBlack" data-item-index="3" data-renderer-id="0" transform="translate(298.041015625, 218.0001220703125)"></g><g id="g-root-2.cu_sy_9259qng53oqq-fill" data-item-order="999818238" data-item-id="2.cu_sy_9259qng53oqq" data-item-class="Part Indexed Stroke ColorStrokeBlack" data-item-index="2" data-renderer-id="0" transform="translate(19.630889892578125, 103.9730224609375)"></g><g id="g-root-2.cu_sy_9259qng53oqq-fill" data-item-order="999818238" data-item-id="2.cu_sy_9259qng53oqq" data-item-class="Part Indexed Stroke ColorStrokeBlack" data-item-index="2" data-renderer-id="0" transform="translate(19.630889892578125, 103.9730224609375)"></g><g id="g-root-1.Vector_sy_dhyrv3g53nyh-fill" data-item-order="999818240" data-item-id="1.Vector_sy_dhyrv3g53nyh" data-item-class="Curve Stroke Part Indexed Indexed_1 ColorFillGray" data-item-index="1" data-renderer-id="0" transform="translate(3, 73.1240234375)"></g><g id="g-root-1.Vector_sy_dhyrv3g53nyh-fill" data-item-order="999818240" data-item-id="1.Vector_sy_dhyrv3g53nyh" data-item-class="Curve Stroke Part Indexed Indexed_1 ColorFillGray" data-item-index="1" data-renderer-id="0" transform="translate(3, 73.1240234375)"></g><g id="g-root-tx_n1proble_qsst5bg53pjc-fill" data-item-order="1000000000" data-item-id="tx_n1proble_qsst5bg53pjc" data-item-class="Label Stroke Title ColorStrokeBlack" data-item-index="none" data-renderer-id="0" transform="translate(39, 2)"><g id="tx_n1proble_qsst5bg53pjc-fill" stroke="none" fill="#484848"><g><text style="font: 20px Roboto, sans-serif; white-space: pre;" font-weight="20px" font-size="Roboto," font-family="sans-serif"><tspan x="15.09" y="34" dominant-baseline="ideographic">N+1 problem causes excessive database query performance </tspan><tspan x="252.18" y="58" dominant-baseline="ideographic">issues.</tspan></text></g></g></g><g id="g-root-4.cu_sy_1urstcfg53q4k-stroke" data-item-order="999818233" data-item-id="4.cu_sy_1urstcfg53q4k" data-item-class="Part Indexed Fill Stroke" data-item-index="4" data-renderer-id="0" transform="translate(305.2950439453125, 218.95013427734375)"><g id="4.cu_sy_1urstcfg53q4k-stroke" fill="none" stroke-linecap="round" stroke-linejoin="round" stroke-miterlimit="4" stroke="#dd8433" stroke-width="2"><g><path d="M 26.232987 113.341003L 19.733987 113.341003L 19.733987 39.858003L 26.232987 39.858003L 26.232987 113.341003ZM 35.985987 16.464003L 9.999987 16.464003L 9.999987 10.000003L 35.985987 10.000003L 35.985987 16.464003Z"></path></g></g></g><g id="g-root-4.cu_sy_1urstcfg53q4k-stroke" data-item-order="999818233" data-item-id="4.cu_sy_1urstcfg53q4k" data-item-class="Part Indexed Fill Stroke" data-item-index="4" data-renderer-id="0" transform="translate(305.2950439453125, 218.95013427734375)"><g id="4.cu_sy_1urstcfg53q4k-stroke" fill="none" stroke-linecap="round" stroke-linejoin="round" stroke-miterlimit="4" stroke="#dd8433" stroke-width="2"><g><path d="M 26.232987 113.341003L 19.733987 113.341003L 19.733987 39.858003L 26.232987 39.858003L 26.232987 113.341003ZM 35.985987 16.464003L 9.999987 16.464003L 9.999987 10.000003L 35.985987 10.000003L 35.985987 16.464003Z"></path></g></g></g><g id="g-root-3.cu_sy_6i9hrg53pjf-stroke" data-item-order="999818235" data-item-id="3.cu_sy_6i9hrg53pjf" data-item-class="Part Indexed Fill Stroke ColorFillGray ColorStrokeBlack" data-item-index="3" data-renderer-id="0" transform="translate(298.041015625, 218.0001220703125)"><g id="3.cu_sy_6i9hrg53pjf-stroke" fill="none" stroke-linecap="round" stroke-linejoin="round" stroke-miterlimit="4" stroke="#484848" stroke-width="2"><g><path d="M 33.487015 40.808L 26.988015 40.808L 26.988015 32.473L 33.487015 32.473L 33.487015 40.808ZM 11.371015 117.677L 13.249015 117.044C 18.772015 115.2 24.506015 114.283 30.240015 114.291C 35.973015 114.283 41.708015 115.2 47.230015 117.044L 49.108015 117.677C 49.908015 117.948 50.454015 118.71 50.454015 119.588L 50.479015 137.158C 50.479015 142.464 49.122015 146.492 46.794015 150.971L 46.113015 152.167C 46.113015 152.167 45.493015 152.254 45.035015 152.348C 42.667015 152.721 40.285015 153.06 38.577015 153.159C 37.014015 153.249 34.582015 152.967 32.812015 152.892C 31.655015 152.843 30.804015 152.984 29.751015 152.759C 28.697015 152.533 27.612015 152.28 26.812015 152.257C 25.479015 152.219 23.603015 152.412 21.866015 152.625C 19.167015 152.956 17.138015 153.271 14.823015 153.169L 13.685015 150.971C 11.358015 146.492 10.000015 142.464 10.000015 137.158L 10.026015 119.588C 10.026015 118.71 10.571015 117.948 11.371015 117.677ZM 34.268015 114.557L 34.268015 135.442C 34.268015 137.623 32.514015 139.397 30.356015 139.397C 28.197015 139.397 26.443015 137.623 26.443015 135.442L 26.443015 114.557"></path></g></g><g id="3.cu_sy_6i9hrg53pjf-stroke" fill="none" stroke-linecap="round" stroke-linejoin="round" stroke-miterlimit="4" stroke="#484848" stroke-width="2"><g><path d="M 17.235015 10L 17.236015 19.758C 17.479015 26.82 23.185015 32.473 30.237015 32.473C 37.289015 32.473 43.011015 26.82 43.238015 19.758L 43.237015 10L 43.221015 10"></path></g></g></g><g id="g-root-3.cu_sy_6i9hrg53pjf-stroke" data-item-order="999818235" data-item-id="3.cu_sy_6i9hrg53pjf" data-item-class="Part Indexed Fill Stroke ColorFillGray ColorStrokeBlack" data-item-index="3" data-renderer-id="0" transform="translate(298.041015625, 218.0001220703125)"><g id="3.cu_sy_6i9hrg53pjf-stroke" fill="none" stroke-linecap="round" stroke-linejoin="round" stroke-miterlimit="4" stroke="#484848" stroke-width="2"><g><path d="M 33.487015 40.808L 26.988015 40.808L 26.988015 32.473L 33.487015 32.473L 33.487015 40.808ZM 11.371015 117.677L 13.249015 117.044C 18.772015 115.2 24.506015 114.283 30.240015 114.291C 35.973015 114.283 41.708015 115.2 47.230015 117.044L 49.108015 117.677C 49.908015 117.948 50.454015 118.71 50.454015 119.588L 50.479015 137.158C 50.479015 142.464 49.122015 146.492 46.794015 150.971L 46.113015 152.167C 46.113015 152.167 45.493015 152.254 45.035015 152.348C 42.667015 152.721 40.285015 153.06 38.577015 153.159C 37.014015 153.249 34.582015 152.967 32.812015 152.892C 31.655015 152.843 30.804015 152.984 29.751015 152.759C 28.697015 152.533 27.612015 152.28 26.812015 152.257C 25.479015 152.219 23.603015 152.412 21.866015 152.625C 19.167015 152.956 17.138015 153.271 14.823015 153.169L 13.685015 150.971C 11.358015 146.492 10.000015 142.464 10.000015 137.158L 10.026015 119.588C 10.026015 118.71 10.571015 117.948 11.371015 117.677ZM 34.268015 114.557L 34.268015 135.442C 34.268015 137.623 32.514015 139.397 30.356015 139.397C 28.197015 139.397 26.443015 137.623 26.443015 135.442L 26.443015 114.557"></path></g></g><g id="3.cu_sy_6i9hrg53pjf-stroke" fill="none" stroke-linecap="round" stroke-linejoin="round" stroke-miterlimit="4" stroke="#484848" stroke-width="2"><g><path d="M 17.235015 10L 17.236015 19.758C 17.479015 26.82 23.185015 32.473 30.237015 32.473C 37.289015 32.473 43.011015 26.82 43.238015 19.758L 43.237015 10L 43.221015 10"></path></g></g></g><g id="g-root-2.cu_sy_9259qng53oqq-stroke" data-item-order="999818238" data-item-id="2.cu_sy_9259qng53oqq" data-item-class="Part Indexed Stroke ColorStrokeBlack" data-item-index="2" data-renderer-id="0" transform="translate(19.630889892578125, 103.9730224609375)"><g id="2.cu_sy_9259qng53oqq-stroke" fill="none" stroke-linecap="round" stroke-linejoin="round" stroke-miterlimit="4" stroke="#484848" stroke-width="2"><g><path d="M 164.330101 14.041L 166.560101 29.711C 167.010101 32.901 166.450101 36.141 164.960101 38.991C 163.440101 41.891 163.020101 45.251 163.800101 48.441L 163.970101 49.141C 164.560101 51.571 164.720101 54.071 164.540101 56.571C 164.400101 58.521 164.340101 60.481 164.360101 62.431C 164.390101 64.881 164.440101 67.301 164.510101 69.711C 164.570101 71.661 164.640101 73.591 164.720101 75.521C 164.950101 80.811 167.010101 82.471 167.480101 87.551C 167.950101 92.631 165.700101 91.271 166.190101 96.021C 166.920101 103.171 167.520101 103.801 170.150101 112.381C 171.990101 118.381 169.950101 122.931 170.520101 125.911C 171.360101 130.251 170.990101 136.851 171.990101 141.001C 172.860101 144.611 175.080101 145.801 176.070101 149.281C 176.870101 152.091 180.170101 156.321 181.040101 159.041C 182.780101 164.451 182.200101 168.221 184.220101 173.251C 185.200101 175.701 186.220101 178.101 187.260101 180.461C 188.540101 183.361 189.880101 186.181 191.250101 188.941C 191.980101 190.401 192.720101 191.841 193.480101 193.261C 195.790101 197.611 199.620101 198.201 202.150101 202.191C 203.080101 203.651 202.630101 208.671 203.590101 210.091C 206.280101 214.051 209.090101 217.821 212.000101 221.381C 213.440101 223.141 217.550101 223.761 219.040101 225.431C 222.060101 228.811 220.700101 233.441 223.930101 236.421C 225.950101 238.281 229.850101 239.721 231.950101 241.421C 234.440101 243.451 237.350101 243.721 239.930101 245.521C 242.370101 247.221 244.490101 250.471 247.020101 251.961C 248.660101 252.931 251.820101 255.941 253.490101 256.821C 257.030101 258.691 259.130101 258.281 262.810101 259.751C 265.710101 260.911 268.070101 259.861 271.050101 260.781C 272.840101 261.331 275.210101 263.921 277.020101 264.381C 281.940101 265.631 286.960101 266.541 292.050101 267.111C 296.330101 267.591 300.660101 266.281 305.040101 266.281C 306.620101 266.281 308.190101 266.991 309.760101 266.921C 312.510101 266.811 315.240101 267.421 317.950101 267.121C 321.390101 266.741 324.790101 266.201 328.150101 265.511C 331.510101 264.821 335.070101 263.911 338.470101 262.871C 340.540101 262.231 342.590101 261.541 344.620101 260.781C 347.340101 259.771 348.390101 257.601 351.040101 256.371C 355.780101 254.181 362.590101 254.351 367.070101 251.481C 368.970101 250.271 370.280101 247.351 372.130101 246.021C 376.030101 243.211 380.710101 241.481 384.380101 238.151C 388.050101 234.821 390.590101 230.001 393.960101 226.221C 396.090101 223.831 396.690101 216.491 398.720101 213.901C 401.910101 209.811 406.440101 210.321 409.360101 205.741C 411.410101 202.531 414.490101 201.441 416.390101 197.991C 418.290101 194.541 418.930101 188.851 420.640101 185.231C 421.500101 183.411 424.990101 181.361 425.810101 179.481C 428.010101 174.461 427.430101 169.451 429.340101 164.031C 430.500101 160.731 434.000101 158.861 435.050101 155.411C 436.460101 150.781 435.370101 144.501 436.570101 139.601C 437.350101 136.391 436.600101 132.431 437.290101 129.121C 438.030101 125.561 441.760101 122.841 442.390101 119.151C 443.250101 114.121 442.440101 108.761 443.080101 103.491C 443.480101 100.171 441.740101 96.791 442.060101 93.381C 442.590101 87.641 447.120101 84.811 447.390101 78.811C 447.530101 75.641 445.600101 69.371 445.670101 66.131C 445.680101 65.511 445.600101 64.931 445.460101 64.361C 444.290101 59.541 444.460101 54.481 445.460101 49.621L 445.760101 48.151L 447.390101 33.481L 445.760101 21.441L 445.760101 14.021M 100.170101 20.15L 100.170101 20.19M 140.199101 64.99L 140.229101 64.99M 148.250101 36.75L 148.280101 36.75M 129.820101 16.25L 129.850101 16.25M 10.000001 20.18L 10.040001 20.18M 148.461101 86.2L 148.491101 86.2M 148.250101 106.56L 148.280101 106.56M 150.000101 139.85L 150.040101 139.85M 161.000101 120.61L 161.030101 120.61M 156.560101 54.43L 156.590101 54.43M 150.019101 18.95L 150.049101 18.95M 216.030101 235.81L 216.000101 235.83M 176.030101 224.28L 176.000101 224.3M 187.510101 204.59L 187.480101 204.61M 176.010101 187.78L 175.980101 187.8M 143.210101 167.56L 143.180101 167.58M 161.049101 155.31L 161.019101 155.33M 157.510101 183.57L 157.480101 183.59M 199.069101 235.26L 199.039101 235.28M 220.399101 254.13L 220.369101 254.15M 247.059101 265.12L 247.029101 265.14M 272.450101 270.43L 272.420101 270.45M 80.900301 10.03L 80.900301 10M 52.660001 18.98L 52.660001 18.95M 29.039001 10.45L 29.039001 10.42M 517.131101 20.18L 517.131101 20.14M 465.070101 73.99L 465.100101 73.99M 469.019101 36.75L 469.049101 36.75M 487.449101 16.25L 487.479101 16.25M 607.260101 20.18L 607.300101 20.18M 451.801101 86.2L 451.831101 86.2M 469.019101 106.56L 469.049101 106.56M 451.269101 139.85L 451.309101 139.85M 456.260101 120.61L 456.290101 120.61M 455.711101 54.43L 455.741101 54.43M 460.250101 18.95L 460.280101 18.95M 401.299101 235.83L 401.269101 235.81M 441.299101 224.3L 441.269101 224.28M 429.819101 204.61L 429.789101 204.59M 441.309101 187.8L 441.279101 187.78M 453.120101 167.58L 453.090101 167.56M 464.280101 155.33L 464.250101 155.31M 459.819101 183.59L 459.789101 183.57M 418.260101 235.28L 418.230101 235.26M 396.930101 254.15L 396.900101 254.13M 370.260101 265.14L 370.230101 265.12M 344.870101 270.45L 344.840101 270.43M 536.400101 12L 536.400101 12.03M 564.640101 18.95L 564.640101 18.98M 588.260101 12.41L 588.260101 12.44M 501.590101 27.76L 501.590101 27.72M 545.590101 27.72L 545.590101 27.68M 581.090101 27.72L 581.090101 27.68M 119.090101 28.68L 119.090101 28.72M 70.090401 27.68L 70.090401 27.72M 38.090401 28.64L 38.090401 28.68"></path></g></g></g><g id="g-root-2.cu_sy_9259qng53oqq-stroke" data-item-order="999818238" data-item-id="2.cu_sy_9259qng53oqq" data-item-class="Part Indexed Stroke ColorStrokeBlack" data-item-index="2" data-renderer-id="0" transform="translate(19.630889892578125, 103.9730224609375)"><g id="2.cu_sy_9259qng53oqq-stroke" fill="none" stroke-linecap="round" stroke-linejoin="round" stroke-miterlimit="4" stroke="#484848" stroke-width="2"><g><path d="M 164.330101 14.041L 166.560101 29.711C 167.010101 32.901 166.450101 36.141 164.960101 38.991C 163.440101 41.891 163.020101 45.251 163.800101 48.441L 163.970101 49.141C 164.560101 51.571 164.720101 54.071 164.540101 56.571C 164.400101 58.521 164.340101 60.481 164.360101 62.431C 164.390101 64.881 164.440101 67.301 164.510101 69.711C 164.570101 71.661 164.640101 73.591 164.720101 75.521C 164.950101 80.811 167.010101 82.471 167.480101 87.551C 167.950101 92.631 165.700101 91.271 166.190101 96.021C 166.920101 103.171 167.520101 103.801 170.150101 112.381C 171.990101 118.381 169.950101 122.931 170.520101 125.911C 171.360101 130.251 170.990101 136.851 171.990101 141.001C 172.860101 144.611 175.080101 145.801 176.070101 149.281C 176.870101 152.091 180.170101 156.321 181.040101 159.041C 182.780101 164.451 182.200101 168.221 184.220101 173.251C 185.200101 175.701 186.220101 178.101 187.260101 180.461C 188.540101 183.361 189.880101 186.181 191.250101 188.941C 191.980101 190.401 192.720101 191.841 193.480101 193.261C 195.790101 197.611 199.620101 198.201 202.150101 202.191C 203.080101 203.651 202.630101 208.671 203.590101 210.091C 206.280101 214.051 209.090101 217.821 212.000101 221.381C 213.440101 223.141 217.550101 223.761 219.040101 225.431C 222.060101 228.811 220.700101 233.441 223.930101 236.421C 225.950101 238.281 229.850101 239.721 231.950101 241.421C 234.440101 243.451 237.350101 243.721 239.930101 245.521C 242.370101 247.221 244.490101 250.471 247.020101 251.961C 248.660101 252.931 251.820101 255.941 253.490101 256.821C 257.030101 258.691 259.130101 258.281 262.810101 259.751C 265.710101 260.911 268.070101 259.861 271.050101 260.781C 272.840101 261.331 275.210101 263.921 277.020101 264.381C 281.940101 265.631 286.960101 266.541 292.050101 267.111C 296.330101 267.591 300.660101 266.281 305.040101 266.281C 306.620101 266.281 308.190101 266.991 309.760101 266.921C 312.510101 266.811 315.240101 267.421 317.950101 267.121C 321.390101 266.741 324.790101 266.201 328.150101 265.511C 331.510101 264.821 335.070101 263.911 338.470101 262.871C 340.540101 262.231 342.590101 261.541 344.620101 260.781C 347.340101 259.771 348.390101 257.601 351.040101 256.371C 355.780101 254.181 362.590101 254.351 367.070101 251.481C 368.970101 250.271 370.280101 247.351 372.130101 246.021C 376.030101 243.211 380.710101 241.481 384.380101 238.151C 388.050101 234.821 390.590101 230.001 393.960101 226.221C 396.090101 223.831 396.690101 216.491 398.720101 213.901C 401.910101 209.811 406.440101 210.321 409.360101 205.741C 411.410101 202.531 414.490101 201.441 416.390101 197.991C 418.290101 194.541 418.930101 188.851 420.640101 185.231C 421.500101 183.411 424.990101 181.361 425.810101 179.481C 428.010101 174.461 427.430101 169.451 429.340101 164.031C 430.500101 160.731 434.000101 158.861 435.050101 155.411C 436.460101 150.781 435.370101 144.501 436.570101 139.601C 437.350101 136.391 436.600101 132.431 437.290101 129.121C 438.030101 125.561 441.760101 122.841 442.390101 119.151C 443.250101 114.121 442.440101 108.761 443.080101 103.491C 443.480101 100.171 441.740101 96.791 442.060101 93.381C 442.590101 87.641 447.120101 84.811 447.390101 78.811C 447.530101 75.641 445.600101 69.371 445.670101 66.131C 445.680101 65.511 445.600101 64.931 445.460101 64.361C 444.290101 59.541 444.460101 54.481 445.460101 49.621L 445.760101 48.151L 447.390101 33.481L 445.760101 21.441L 445.760101 14.021M 100.170101 20.15L 100.170101 20.19M 140.199101 64.99L 140.229101 64.99M 148.250101 36.75L 148.280101 36.75M 129.820101 16.25L 129.850101 16.25M 10.000001 20.18L 10.040001 20.18M 148.461101 86.2L 148.491101 86.2M 148.250101 106.56L 148.280101 106.56M 150.000101 139.85L 150.040101 139.85M 161.000101 120.61L 161.030101 120.61M 156.560101 54.43L 156.590101 54.43M 150.019101 18.95L 150.049101 18.95M 216.030101 235.81L 216.000101 235.83M 176.030101 224.28L 176.000101 224.3M 187.510101 204.59L 187.480101 204.61M 176.010101 187.78L 175.980101 187.8M 143.210101 167.56L 143.180101 167.58M 161.049101 155.31L 161.019101 155.33M 157.510101 183.57L 157.480101 183.59M 199.069101 235.26L 199.039101 235.28M 220.399101 254.13L 220.369101 254.15M 247.059101 265.12L 247.029101 265.14M 272.450101 270.43L 272.420101 270.45M 80.900301 10.03L 80.900301 10M 52.660001 18.98L 52.660001 18.95M 29.039001 10.45L 29.039001 10.42M 517.131101 20.18L 517.131101 20.14M 465.070101 73.99L 465.100101 73.99M 469.019101 36.75L 469.049101 36.75M 487.449101 16.25L 487.479101 16.25M 607.260101 20.18L 607.300101 20.18M 451.801101 86.2L 451.831101 86.2M 469.019101 106.56L 469.049101 106.56M 451.269101 139.85L 451.309101 139.85M 456.260101 120.61L 456.290101 120.61M 455.711101 54.43L 455.741101 54.43M 460.250101 18.95L 460.280101 18.95M 401.299101 235.83L 401.269101 235.81M 441.299101 224.3L 441.269101 224.28M 429.819101 204.61L 429.789101 204.59M 441.309101 187.8L 441.279101 187.78M 453.120101 167.58L 453.090101 167.56M 464.280101 155.33L 464.250101 155.31M 459.819101 183.59L 459.789101 183.57M 418.260101 235.28L 418.230101 235.26M 396.930101 254.15L 396.900101 254.13M 370.260101 265.14L 370.230101 265.12M 344.870101 270.45L 344.840101 270.43M 536.400101 12L 536.400101 12.03M 564.640101 18.95L 564.640101 18.98M 588.260101 12.41L 588.260101 12.44M 501.590101 27.76L 501.590101 27.72M 545.590101 27.72L 545.590101 27.68M 581.090101 27.72L 581.090101 27.68M 119.090101 28.68L 119.090101 28.72M 70.090401 27.68L 70.090401 27.72M 38.090401 28.64L 38.090401 28.68"></path></g></g></g><g id="g-root-1.Vector_sy_dhyrv3g53nyh-stroke" data-item-order="999818240" data-item-id="1.Vector_sy_dhyrv3g53nyh" data-item-class="Curve Stroke Part Indexed Indexed_1 ColorFillGray" data-item-index="1" data-renderer-id="0" transform="translate(3, 73.1240234375)"><g id="1.Vector_sy_dhyrv3g53nyh-stroke" fill="none" stroke-linecap="round" stroke-linejoin="round" stroke-miterlimit="4" stroke="#93c131" stroke-width="2"><g><path d="M 634 34.879999L 561.42 34.879999L 561.409 34.879999C 560.299 28.429999 567.049 24.439999 571.269 26.669999C 569.269 23.559999 563.379 22.889999 558.939 25.999999C 557.079 20.519999 557.829 13.769999 560.999 9.999999C 549.839 14.699999 550.779 29.559999 550.779 29.559999C 550.779 29.559999 547.999 24.529999 540.109 27.779999C 547.669 28.889999 546.919 34.879999 546.919 34.879999L 462.369 34.879999L 462.37 34.889999C 455.78 34.889999 447.78 34.889999 444 42.029999C 450 38.439999 456.33 40.229999 456.33 40.229999C 456.33 40.229999 449.66 44.389999 451.33 52.309999C 453.94 46.559999 456.74 44.559999 462.37 44.889999M 10 34.879999L 180.96 34.879999C 180.96 34.879999 191.891 34.879999 196.001 41.109999C 188.481 39.439999 186.001 41.109999 186.001 41.109999C 186.001 41.109999 188.001 44.779999 186.671 48.999999C 183.301 44.509999 180.961 44.889999 180.961 44.889999"></path></g></g></g><g id="g-root-1.Vector_sy_dhyrv3g53nyh-stroke" data-item-order="999818240" data-item-id="1.Vector_sy_dhyrv3g53nyh" data-item-class="Curve Stroke Part Indexed Indexed_1 ColorFillGray" data-item-index="1" data-renderer-id="0" transform="translate(3, 73.1240234375)"><g id="1.Vector_sy_dhyrv3g53nyh-stroke" fill="none" stroke-linecap="round" stroke-linejoin="round" stroke-miterlimit="4" stroke="#93c131" stroke-width="2"><g><path d="M 634 34.879999L 561.42 34.879999L 561.409 34.879999C 560.299 28.429999 567.049 24.439999 571.269 26.669999C 569.269 23.559999 563.379 22.889999 558.939 25.999999C 557.079 20.519999 557.829 13.769999 560.999 9.999999C 549.839 14.699999 550.779 29.559999 550.779 29.559999C 550.779 29.559999 547.999 24.529999 540.109 27.779999C 547.669 28.889999 546.919 34.879999 546.919 34.879999L 462.369 34.879999L 462.37 34.889999C 455.78 34.889999 447.78 34.889999 444 42.029999C 450 38.439999 456.33 40.229999 456.33 40.229999C 456.33 40.229999 449.66 44.389999 451.33 52.309999C 453.94 46.559999 456.74 44.559999 462.37 44.889999M 10 34.879999L 180.96 34.879999C 180.96 34.879999 191.891 34.879999 196.001 41.109999C 188.481 39.439999 186.001 41.109999 186.001 41.109999C 186.001 41.109999 188.001 44.779999 186.671 48.999999C 183.301 44.509999 180.961 44.889999 180.961 44.889999"></path></g></g></g><g id="g-root-tx_n1proble_qsst5bg53pjc-stroke" data-item-order="1000000000" data-item-id="tx_n1proble_qsst5bg53pjc" data-item-class="Label Stroke Title ColorStrokeBlack" data-item-index="none" data-renderer-id="0" transform="translate(39, 2)"></g></g></g></svg>